<svg xmlns="http://www.w3.org/2000/svg" width="337" height="320" viewBox="0 0 337 320">
  <g id="_3_providers" data-name="3 providers" transform="translate(-1145 -1197)">
    <g id="Group_3" data-name="Group 3" transform="translate(1482.067 1517.399) rotate(180)">
      <g id="Ellipse_1" data-name="Ellipse 1" transform="translate(0.067 0.399)" fill="rgba(0,0,0,0.35)" stroke="#fff" stroke-width="1">
        <ellipse cx="96" cy="95.5" rx="96" ry="95.5" stroke="none"/>
        <ellipse cx="96" cy="95.5" rx="95.5" ry="95" fill="none"/>
      </g>
      <g id="Ellipse_2" data-name="Ellipse 2" transform="translate(145.067 0.399)" fill="rgba(0,0,0,0.35)" stroke="#fff" stroke-width="1">
        <ellipse cx="96" cy="95.5" rx="96" ry="95.5" stroke="none"/>
        <ellipse cx="96" cy="95.5" rx="95.5" ry="95" fill="none"/>
      </g>
      <g id="Ellipse_3" data-name="Ellipse 3" transform="translate(73.067 128.399)" fill="rgba(0,0,0,0.35)" stroke="#fff" stroke-width="1">
        <circle cx="96" cy="96" r="96" stroke="none"/>
        <circle cx="96" cy="96" r="95.5" fill="none"/>
      </g>
    </g>
    <path id="Path_6" data-name="Path 6" d="M-28.325-15.18v2.222h4.378V0h2.552V-12.958h4.356V-15.18ZM-17.171-3.234c0,2.2,1.5,3.432,3.916,3.432A2.557,2.557,0,0,0-10.7-1.012V0h2.31V-7.392c0-2.926-1.518-3.806-4.334-3.806-2.178,0-3.366.528-4.158,1.826l1.694,1.188c.528-.858,1.122-.99,2.31-.99,1.65,0,2.178.374,2.178,1.76v.924h-2.376C-15.433-6.49-17.171-5.588-17.171-3.234Zm6.468-.924c0,1.914-.858,2.354-2.288,2.354-1.122,0-1.87-.418-1.87-1.43,0-.968.572-1.452,1.958-1.452h2.2Zm4.818.7C-5.885-.924-4.719,0-1.859,0V-2.068c-1.452,0-1.672-.748-1.672-1.936V-15.18H-5.885ZM6.853-2.9A2.28,2.28,0,0,1,4.587-1.826c-1.738,0-2.4-1.342-2.4-3.058v-.044H8.767v-1.21c0-3.256-1.43-5.06-4.444-5.06C1.441-11.2-.143-9.5-.143-6.27v1.5C-.143-1.848,1.529.2,4.675.2,6.611.2,7.843-.33,8.613-1.672ZM4.323-9.152c1.342,0,2,.814,2.09,2.42h-4.2C2.321-8.228,2.959-9.152,4.323-9.152ZM11.033,0h2.354V-6.644a2.194,2.194,0,0,1,2.266-2.464c1.21,0,2.09.55,2.09,2.486V0h2.332V-6.886c0-3.168-1.738-4.312-4-4.312a3.1,3.1,0,0,0-2.728,1.188V-11h-2.31ZM21.725-8.976h1.408V-3.5c0,2.6.946,3.5,3.586,3.5H27.8V-2.112h-.9c-1.232,0-1.43-.55-1.43-1.826V-8.976H27.8V-11H25.465v-2.42H23.133V-11H21.725ZM-38.324,22.456c3.52,0,5.588-1.76,5.588-4.84,0-3.124-2.09-4.8-5.588-4.8h-5.17V28h2.552V22.456Zm-2.618-2.2V15.042h2.354c2.332,0,3.3.924,3.3,2.574,0,1.738-.968,2.64-3.3,2.64Zm17.82-1.826A3.335,3.335,0,0,0-26.18,16.8a2.741,2.741,0,0,0-2.464,1.188V17h-2.31V28H-28.6V21.356c0-1.584.836-2.464,2.024-2.464a1.823,1.823,0,0,1,1.584.858Zm9.834,3.366c0-3.234-1.694-4.994-4.664-4.994s-4.686,1.76-4.686,4.994v1.386c0,3.036,1.606,5.016,4.686,5.016,3.234,0,4.664-2.09,4.664-5.016Zm-4.664,4.378c-1.782,0-2.354-1.342-2.354-3.058V21.84c0-1.892.77-2.992,2.354-2.992,1.562,0,2.332,1.078,2.332,2.992v1.276C-15.62,24.832-16.28,26.174-17.952,26.174ZM-4.29,17l-2.838,7.854L-9.988,17h-2.6l4.378,11h2.244l4.29-11ZM0,28H2.354V17H0ZM-.11,15.218H2.464v-2.4H-.11ZM11.748,17.77a3.505,3.505,0,0,0-2.64-.968c-2.662,0-4.378,1.76-4.378,4.928v1.5c0,2.882,1.452,4.972,4.378,4.972a3.454,3.454,0,0,0,2.64-.968V28H14.08V12.82H11.748Zm-2.332,8.4c-1.694,0-2.354-1.342-2.354-3.058V21.84c0-1.914.77-2.992,2.354-2.992,1.518,0,2.332,1.056,2.332,2.86v1.408C11.748,24.832,11.176,26.174,9.416,26.174ZM23.144,25.1a2.28,2.28,0,0,1-2.266,1.078c-1.738,0-2.4-1.342-2.4-3.058v-.044h6.578v-1.21c0-3.256-1.43-5.06-4.444-5.06-2.882,0-4.466,1.694-4.466,4.928v1.5c0,2.926,1.672,4.972,4.818,4.972,1.936,0,3.168-.528,3.938-1.87Zm-2.53-6.248c1.342,0,2,.814,2.09,2.42H18.5C18.612,19.772,19.25,18.848,20.614,18.848Zm14.542-.418A3.335,3.335,0,0,0,32.1,16.8a2.741,2.741,0,0,0-2.464,1.188V17h-2.31V28h2.354V21.356c0-1.584.836-2.464,2.024-2.464a1.823,1.823,0,0,1,1.584.858Zm8.866.2c-.858-1.364-2.288-1.826-4.092-1.826-2.684,0-4.114,1.32-4.114,3.278,0,2.31,1.76,3.19,3.85,3.454,1.716.22,2.288.484,2.288,1.386,0,.77-.7,1.21-1.914,1.21A2.808,2.808,0,0,1,37.422,25.1L35.64,26.372c.9,1.21,2.178,1.826,4.422,1.826,2.838,0,4.224-1.32,4.224-3.344,0-2.332-1.584-3.19-4.026-3.476-1.276-.154-2.09-.44-2.09-1.364,0-.792.726-1.122,1.716-1.122a2.542,2.542,0,0,1,2.4.99Z" transform="translate(1314 1265)" fill="#fff"/>
    <path id="Path_7" data-name="Path 7" d="M-14.278,0c3.41,0,5.7-1.826,5.7-6.688v-1.8c0-4.862-2.288-6.688-5.7-6.688H-19.4V0Zm0-2.2h-2.574V-12.958h2.574c2.178,0,3.146,1.342,3.146,4.466v1.8C-11.132-3.564-12.1-2.2-14.278-2.2ZM-6.82-3.234C-6.82-1.034-5.324.2-2.9.2A2.557,2.557,0,0,0-.352-1.012V0h2.31V-7.392C1.958-10.318.44-11.2-2.376-11.2c-2.178,0-3.366.528-4.158,1.826L-4.84-8.184c.528-.858,1.122-.99,2.31-.99,1.65,0,2.178.374,2.178,1.76v.924H-2.728C-5.082-6.49-6.82-5.588-6.82-3.234Zm6.468-.924C-.352-2.244-1.21-1.8-2.64-1.8c-1.122,0-1.87-.418-1.87-1.43,0-.968.572-1.452,1.958-1.452h2.2ZM3.586-8.976H4.994V-3.5C4.994-.9,5.94,0,8.58,0H9.658V-2.112h-.9c-1.232,0-1.43-.55-1.43-1.826V-8.976H9.658V-11H7.326v-2.42H4.994V-11H3.586Zm7.458,5.742c0,2.2,1.5,3.432,3.916,3.432a2.557,2.557,0,0,0,2.552-1.21V0h2.31V-7.392c0-2.926-1.518-3.806-4.334-3.806-2.178,0-3.366.528-4.158,1.826l1.694,1.188c.528-.858,1.122-.99,2.31-.99,1.65,0,2.178.374,2.178,1.76v.924H15.136C12.782-6.49,11.044-5.588,11.044-3.234Zm6.468-.924c0,1.914-.858,2.354-2.288,2.354-1.122,0-1.87-.418-1.87-1.43,0-.968.572-1.452,1.958-1.452h2.2ZM-38.324,22.456c3.52,0,5.588-1.76,5.588-4.84,0-3.124-2.09-4.8-5.588-4.8h-5.17V28h2.552V22.456Zm-2.618-2.2V15.042h2.354c2.332,0,3.3.924,3.3,2.574,0,1.738-.968,2.64-3.3,2.64Zm17.82-1.826A3.335,3.335,0,0,0-26.18,16.8a2.741,2.741,0,0,0-2.464,1.188V17h-2.31V28H-28.6V21.356c0-1.584.836-2.464,2.024-2.464a1.823,1.823,0,0,1,1.584.858Zm9.834,3.366c0-3.234-1.694-4.994-4.664-4.994s-4.686,1.76-4.686,4.994v1.386c0,3.036,1.606,5.016,4.686,5.016,3.234,0,4.664-2.09,4.664-5.016Zm-4.664,4.378c-1.782,0-2.354-1.342-2.354-3.058V21.84c0-1.892.77-2.992,2.354-2.992,1.562,0,2.332,1.078,2.332,2.992v1.276C-15.62,24.832-16.28,26.174-17.952,26.174ZM-4.29,17l-2.838,7.854L-9.988,17h-2.6l4.378,11h2.244l4.29-11ZM0,28H2.354V17H0ZM-.11,15.218H2.464v-2.4H-.11ZM11.748,17.77a3.505,3.505,0,0,0-2.64-.968c-2.662,0-4.378,1.76-4.378,4.928v1.5c0,2.882,1.452,4.972,4.378,4.972a3.454,3.454,0,0,0,2.64-.968V28H14.08V12.82H11.748Zm-2.332,8.4c-1.694,0-2.354-1.342-2.354-3.058V21.84c0-1.914.77-2.992,2.354-2.992,1.518,0,2.332,1.056,2.332,2.86v1.408C11.748,24.832,11.176,26.174,9.416,26.174ZM23.144,25.1a2.28,2.28,0,0,1-2.266,1.078c-1.738,0-2.4-1.342-2.4-3.058v-.044h6.578v-1.21c0-3.256-1.43-5.06-4.444-5.06-2.882,0-4.466,1.694-4.466,4.928v1.5c0,2.926,1.672,4.972,4.818,4.972,1.936,0,3.168-.528,3.938-1.87Zm-2.53-6.248c1.342,0,2,.814,2.09,2.42H18.5C18.612,19.772,19.25,18.848,20.614,18.848Zm14.542-.418A3.335,3.335,0,0,0,32.1,16.8a2.741,2.741,0,0,0-2.464,1.188V17h-2.31V28h2.354V21.356c0-1.584.836-2.464,2.024-2.464a1.823,1.823,0,0,1,1.584.858Zm8.866.2c-.858-1.364-2.288-1.826-4.092-1.826-2.684,0-4.114,1.32-4.114,3.278,0,2.31,1.76,3.19,3.85,3.454,1.716.22,2.288.484,2.288,1.386,0,.77-.7,1.21-1.914,1.21A2.808,2.808,0,0,1,37.422,25.1L35.64,26.372c.9,1.21,2.178,1.826,4.422,1.826,2.838,0,4.224-1.32,4.224-3.344,0-2.332-1.584-3.19-4.026-3.476-1.276-.154-2.09-.44-2.09-1.364,0-.792.726-1.122,1.716-1.122a2.542,2.542,0,0,1,2.4.99Z" transform="translate(1223 1413)" fill="#fff"/>
    <path id="Path_8" data-name="Path 8" d="M-30.03,0l-3.234-6.578a3.964,3.964,0,0,0,2.75-4.07c0-3.014-2.09-4.532-5.588-4.532h-5.17V0h2.552V-6.16h2.948L-32.846,0Zm-8.69-8.36v-4.6h2.442c2.156,0,3.212.594,3.212,2.31S-34.122-8.36-36.278-8.36ZM-21.912-2.9a2.28,2.28,0,0,1-2.266,1.078c-1.738,0-2.4-1.342-2.4-3.058v-.044H-20v-1.21c0-3.256-1.43-5.06-4.444-5.06-2.882,0-4.466,1.694-4.466,4.928v1.5C-28.908-1.848-27.236.2-24.09.2c1.936,0,3.168-.528,3.938-1.87Zm-2.53-6.248c1.342,0,2,.814,2.09,2.42h-4.2C-26.444-8.228-25.806-9.152-24.442-9.152ZM-9.9-9.372c-.858-1.364-2.288-1.826-4.092-1.826-2.684,0-4.114,1.32-4.114,3.278,0,2.31,1.76,3.19,3.85,3.454,1.716.22,2.288.484,2.288,1.386,0,.77-.7,1.21-1.914,1.21A2.808,2.808,0,0,1-16.5-2.9l-1.782,1.276C-17.38-.418-16.1.2-13.86.2c2.838,0,4.224-1.32,4.224-3.344,0-2.332-1.584-3.19-4.026-3.476-1.276-.154-2.09-.44-2.09-1.364,0-.792.726-1.122,1.716-1.122a2.542,2.542,0,0,1,2.4.99ZM1.386-6.2c0-3.234-1.694-4.994-4.664-4.994S-7.964-9.438-7.964-6.2v1.386C-7.964-1.782-6.358.2-3.278.2c3.234,0,4.664-2.09,4.664-5.016ZM-3.278-1.826c-1.782,0-2.354-1.342-2.354-3.058V-6.16c0-1.892.77-2.992,2.354-2.992,1.562,0,2.332,1.078,2.332,2.992v1.276C-.946-3.168-1.606-1.826-3.278-1.826ZM12.474-11H10.142v6.644A2.176,2.176,0,0,1,7.9-1.87c-1.232,0-2.112-.55-2.112-2.508V-11H3.432v6.864C3.432-.968,5.192.2,7.458.2,9,.2,9.658-.2,10.164-.99V0h2.31ZM22.836-9.57A3.335,3.335,0,0,0,19.778-11.2a2.741,2.741,0,0,0-2.464,1.188V-11H15V0h2.354V-6.644c0-1.584.836-2.464,2.024-2.464a1.823,1.823,0,0,1,1.584.858ZM30.294-2.9A2.222,2.222,0,0,1,28.2-1.826c-1.936,0-2.552-1.342-2.552-3.058V-6.16c0-1.892.836-2.992,2.552-2.992a2.427,2.427,0,0,1,2.068.99l1.8-1.254A4.391,4.391,0,0,0,28.248-11.2c-3.146,0-4.928,1.76-4.928,4.928v1.5C23.32-1.782,25.08.2,28.16.2c1.892,0,3.19-.572,3.916-1.87Zm9.724,0a2.28,2.28,0,0,1-2.266,1.078c-1.738,0-2.4-1.342-2.4-3.058v-.044h6.578v-1.21c0-3.256-1.43-5.06-4.444-5.06-2.882,0-4.466,1.694-4.466,4.928v1.5C33.022-1.848,34.694.2,37.84.2c1.936,0,3.168-.528,3.938-1.87Zm-2.53-6.248c1.342,0,2,.814,2.09,2.42h-4.2C35.486-8.228,36.124-9.152,37.488-9.152ZM-38.324,22.456c3.52,0,5.588-1.76,5.588-4.84,0-3.124-2.09-4.8-5.588-4.8h-5.17V28h2.552V22.456Zm-2.618-2.2V15.042h2.354c2.332,0,3.3.924,3.3,2.574,0,1.738-.968,2.64-3.3,2.64Zm17.82-1.826A3.335,3.335,0,0,0-26.18,16.8a2.741,2.741,0,0,0-2.464,1.188V17h-2.31V28H-28.6V21.356c0-1.584.836-2.464,2.024-2.464a1.823,1.823,0,0,1,1.584.858Zm9.834,3.366c0-3.234-1.694-4.994-4.664-4.994s-4.686,1.76-4.686,4.994v1.386c0,3.036,1.606,5.016,4.686,5.016,3.234,0,4.664-2.09,4.664-5.016Zm-4.664,4.378c-1.782,0-2.354-1.342-2.354-3.058V21.84c0-1.892.77-2.992,2.354-2.992,1.562,0,2.332,1.078,2.332,2.992v1.276C-15.62,24.832-16.28,26.174-17.952,26.174ZM-4.29,17l-2.838,7.854L-9.988,17h-2.6l4.378,11h2.244l4.29-11ZM0,28H2.354V17H0ZM-.11,15.218H2.464v-2.4H-.11ZM11.748,17.77a3.505,3.505,0,0,0-2.64-.968c-2.662,0-4.378,1.76-4.378,4.928v1.5c0,2.882,1.452,4.972,4.378,4.972a3.454,3.454,0,0,0,2.64-.968V28H14.08V12.82H11.748Zm-2.332,8.4c-1.694,0-2.354-1.342-2.354-3.058V21.84c0-1.914.77-2.992,2.354-2.992,1.518,0,2.332,1.056,2.332,2.86v1.408C11.748,24.832,11.176,26.174,9.416,26.174ZM23.144,25.1a2.28,2.28,0,0,1-2.266,1.078c-1.738,0-2.4-1.342-2.4-3.058v-.044h6.578v-1.21c0-3.256-1.43-5.06-4.444-5.06-2.882,0-4.466,1.694-4.466,4.928v1.5c0,2.926,1.672,4.972,4.818,4.972,1.936,0,3.168-.528,3.938-1.87Zm-2.53-6.248c1.342,0,2,.814,2.09,2.42H18.5C18.612,19.772,19.25,18.848,20.614,18.848Zm14.542-.418A3.335,3.335,0,0,0,32.1,16.8a2.741,2.741,0,0,0-2.464,1.188V17h-2.31V28h2.354V21.356c0-1.584.836-2.464,2.024-2.464a1.823,1.823,0,0,1,1.584.858Zm8.866.2c-.858-1.364-2.288-1.826-4.092-1.826-2.684,0-4.114,1.32-4.114,3.278,0,2.31,1.76,3.19,3.85,3.454,1.716.22,2.288.484,2.288,1.386,0,.77-.7,1.21-1.914,1.21A2.808,2.808,0,0,1,37.422,25.1L35.64,26.372c.9,1.21,2.178,1.826,4.422,1.826,2.838,0,4.224-1.32,4.224-3.344,0-2.332-1.584-3.19-4.026-3.476-1.276-.154-2.09-.44-2.09-1.364,0-.792.726-1.122,1.716-1.122a2.542,2.542,0,0,1,2.4.99Z" transform="translate(1401 1413)" fill="#fff"/>
  </g>
</svg>
